<?xml version="1.0" encoding="UTF-8" standalone="no"?>
<svg
   height="300"
   width="246.98"
   viewBox="0 0 246.984 300"
   version="1.1"
   id="svg12"
   sodipodi:docname="escudo-racing.svg"
   inkscape:version="1.3.2 (1:1.3.2+202410171156+9f538bd40a)"
   xmlns:inkscape="http://www.inkscape.org/namespaces/inkscape"
   xmlns:sodipodi="http://sodipodi.sourceforge.net/DTD/sodipodi-0.dtd"
   xmlns="http://www.w3.org/2000/svg"
   xmlns:svg="http://www.w3.org/2000/svg">
  <defs
     id="defs12" />
  <sodipodi:namedview
     id="namedview12"
     pagecolor="#505050"
     bordercolor="#eeeeee"
     borderopacity="1"
     inkscape:showpageshadow="0"
     inkscape:pageopacity="0"
     inkscape:pagecheckerboard="0"
     inkscape:deskcolor="#d1d1d1"
     inkscape:zoom="1.5733333"
     inkscape:cx="123.30508"
     inkscape:cy="150"
     inkscape:window-width="1366"
     inkscape:window-height="711"
     inkscape:window-x="0"
     inkscape:window-y="0"
     inkscape:window-maximized="1"
     inkscape:current-layer="svg12" />
  <title
     id="title1">Racing Club</title>
  <g
     fill="#ffffff"
     id="g12"
     transform="matrix(0.79490368,0,0,0.79490368,25.62068,52.02517)">
    <path
       fill="#00273e"
       d="m 246.98,0 v 239.17 c 0,33.578 -59.569,33.967 -60.173,33.967 -22.971,0 -43.563,7.476 -57.397,21.047 l -5.92,5.81 -5.921,-5.817 C 103.734,280.606 83.142,273.13 60.171,273.13 59.568,273.14 -0.001,272.75 -0.001,239.17 V 0 h 246.98"
       id="path1" />
    <path
       fill="#029cdc"
       d="m 238.58,8.407 v 230.76 c 0,5.196 -1.994,9.328 -6.276,13.002 -3.99,3.422 -9.788,6.254 -17.234,8.418 -13.862,4.027 -28.133,4.141 -28.255,4.141 -25.394,0 -47.868,8.328 -63.289,23.456 l -0.03,0.029 -0.034,-0.034 C 108.045,273.056 85.57,264.728 60.197,264.728 c -0.143,0 -14.412,-0.113 -28.274,-4.141 -7.447,-2.164 -13.245,-4.996 -17.235,-8.418 -4.282,-3.674 -6.276,-7.806 -6.276,-13.002 V 8.397 h 230.16"
       id="path2" />
    <path
       d="m 40.982,74.47 v 180.2 c 9.998,2.017 18.812,2.152 19.246,2.157 4.682,10e-4 9.274,0.27 13.758,0.794 V 74.471 H 40.982 Z"
       id="path3" />
    <path
       d="M 106.99,74.47 V 267.1 c 5.962,2.923 11.496,6.438 16.504,10.522 5.008,-4.082 10.539,-7.597 16.5,-10.518 V 74.474 h -33 z"
       id="path4" />
    <path
       d="m 173,74.47 v 183.16 c 4.488,-0.525 9.087,-0.795 13.775,-0.796 0.43,-0.005 9.238,-0.143 19.229,-2.157 v -180.2 h -33.012 z"
       id="path5" />
    <path
       d="m 41.044,74.47 0.019,180.28 c 10.058,1.964 18.642,2 19.089,2 h 0.561 c 4.549,0 8.99,0.246 13.334,0.731 V 74.461 c -11.97,0.01 -23.153,0.01 -33.003,0.01 z"
       id="path6" />
    <path
       d="m 107.02,74.47 v 192.54 0.025 c 6.033,3.054 11.599,6.76 16.614,11.113 4.928,-4.174 10.421,-7.771 16.355,-10.76 V 74.468 h -32.96 z"
       id="path7" />
    <path
       d="m 172.97,74.47 v 183.17 c 4.444,-0.54 8.994,-0.808 13.604,-0.808 h 0.326 c 5.111,-0.049 12.076,-0.657 19.04,-2.019 V 74.473 h -32.97 z"
       id="path8" />
    <path
       d="m 40.676,31.672 h -8.438 v 9.138 h 8.155 c 4.793,0 6.821,-1.493 6.821,-4.75 0,-2.926 -1.83,-4.388 -6.538,-4.388 z m 6.421,12.546 -0.039,0.095 10.749,12.332 H 48.91 L 40.716,45.794 H 32.237 V 56.645 H 24.884 V 26.194 H 40.92 c 9.255,0 13.972,3.537 13.972,9.537 0,4.106 -2.804,7.688 -7.795,8.487 z"
       id="path9" />
    <path
       d="m 77.967,34.025 -5.414,11.01 H 86.07 L 80.784,34.025 79.461,31.022 H 79.347 Z M 88.67,50.473 H 69.888 l -3.02,6.171 h -7.87 L 75.327,26.193 h 8.152 l 16.447,30.451 h -8.287 z"
       id="path10" />
    <path
       d="m 128.6,33.053 c -2.469,-0.771 -5.667,-1.418 -9.383,-1.418 -8.798,0 -11.887,3.004 -11.887,9.705 0,7.063 3.205,9.946 12.065,9.946 3.478,0 6.601,-0.685 9.205,-1.744 l 0.94,5.356 c -3.044,1.337 -7.15,2.35 -11.049,2.35 -12.658,0 -18.871,-5.918 -18.871,-15.908 0,-9.297 5.921,-15.756 19.493,-15.756 3.734,0 7.721,0.734 10.292,1.625 l -0.8,5.844 z"
       id="path11" />
    <rect
       y="26.194"
       x="135.17999"
       height="30.451"
       width="7.4310002"
       id="rect11" />
    <polygon
       points="157.1,35.456 156.98,35.493 157.06,38.779 157.06,56.645 150.36,56.645 150.36,26.194 156.54,26.194 175.07,44.313 177.4,46.66 177.48,46.574 177.4,43.325 177.4,26.194 184.05,26.194 184.05,56.645 179.22,56.645 159.41,37.767 "
       id="polygon11" />
    <path
       d="m 222.1,55.344 c -3.235,1.179 -8.039,1.949 -12.496,1.949 -14.014,0 -19.978,-6.042 -19.978,-15.795 0,-9.743 6.02,-15.914 19.978,-15.914 4.135,0 8.557,0.61 11.816,1.673 l -0.736,5.916 c -3.131,-1.01 -6.896,-1.625 -10.729,-1.625 -9.201,0 -12.608,2.817 -12.608,9.829 0,6.833 3.075,9.91 12.009,9.91 2.436,0 4.539,-0.283 6.372,-0.813 V 40.81 h 6.372 z"
       id="path12" />
  </g>
</svg>
