<?xml version="1.0" encoding="UTF-8" standalone="no"?>
<!-- Created with Inkscape (http://www.inkscape.org/) -->

<svg
   width="210mm"
   height="297mm"
   viewBox="0 0 210 297"
   version="1.1"
   id="svg5"
   xml:space="preserve"
   inkscape:version="1.2.2 (b0a8486541, 2022-12-01)"
   sodipodi:docname="logoscoutaitool.svg"
   xmlns:inkscape="http://www.inkscape.org/namespaces/inkscape"
   xmlns:sodipodi="http://sodipodi.sourceforge.net/DTD/sodipodi-0.dtd"
   xmlns="http://www.w3.org/2000/svg"
   xmlns:svg="http://www.w3.org/2000/svg"><sodipodi:namedview
     id="namedview7"
     pagecolor="#505050"
     bordercolor="#eeeeee"
     borderopacity="1"
     inkscape:showpageshadow="0"
     inkscape:pageopacity="0"
     inkscape:pagecheckerboard="0"
     inkscape:deskcolor="#505050"
     inkscape:document-units="mm"
     showgrid="false"
     inkscape:zoom="0.4204826"
     inkscape:cx="417.37755"
     inkscape:cy="391.21714"
     inkscape:window-width="1024"
     inkscape:window-height="711"
     inkscape:window-x="0"
     inkscape:window-y="0"
     inkscape:window-maximized="1"
     inkscape:current-layer="layer1" /><defs
     id="defs2" /><g
     inkscape:label="Layer 1"
     inkscape:groupmode="layer"
     id="layer1"><rect
       style="fill:#00284e;fill-opacity:1;stroke:none;stroke-width:3.96947;stroke-dasharray:none;stroke-opacity:1"
       id="rect3102"
       width="208.64395"
       height="142.80775"
       x="1.6855558"
       y="41.995041" /><path
       style="fill:none;stroke-width:1;stroke:#ffffff;stroke-opacity:1;stroke-dasharray:none"
       d="m 60.295231,72.288497 v 56.912163 h -0.0081 88.809759 v 0.0584 -57.126172 h -0.47895 z"
       id="path293" /><circle
       id="path2281"
       style="fill:#000000;stroke:#ffffff;stroke-width:0.264583;stroke-opacity:1"
       cx="60.674141"
       cy="86.407356"
       r="0.15838827" /><path
       style="fill:none;stroke:#ffffff;stroke-width:1;stroke-dasharray:none;stroke-opacity:1"
       d="m 60.363946,86.260053 h 11.386637 v 0.04197 29.732517 H 70.838736 59.970741"
       id="path2337" /><path
       style="fill:none;stroke:#ffffff;stroke-width:1;stroke-dasharray:none;stroke-opacity:1"
       d="m 60.20874,108.47295 4.368253,-0.16737 -0.158032,-14.411272 h -4.210979"
       id="path2339"
       sodipodi:nodetypes="cccc" /><path
       style="fill:none;stroke:#ffffff;stroke-width:1;stroke-dasharray:none;stroke-opacity:1"
       d="M 68.579115,97.120963 V 104.5659"
       id="path2341" /><path
       style="fill:none;stroke:#ffffff;stroke-width:1;stroke-dasharray:none;stroke-opacity:1"
       d="m 59.921573,77.473116 c 0,0 1.319816,0.853225 3.384733,-1.622356 2.064914,-2.475582 1.079812,-3.477887 1.079812,-3.477887"
       id="path2343" /><path
       style="fill:none;stroke:#ffffff;stroke-width:1;stroke-dasharray:none;stroke-opacity:1"
       d="m 65.074657,129.22856 c 0,0 0.85323,-1.31981 -1.62235,-3.38473 -2.47558,-2.06492 -3.47789,-1.07981 -3.47789,-1.07981"
       id="path2343-3" /><path
       style="fill:none;stroke:#ffffff;stroke-width:1;stroke-dasharray:none;stroke-opacity:1"
       d="M 80.842521,72.413026 V 129.30682"
       id="path2463" /><path
       style="fill:none;stroke:#ffffff;stroke-width:1;stroke-dasharray:none;stroke-opacity:1"
       d="m 80.819513,107.14008 c 0,0 4.19559,-0.55698 4.236201,-5.90723 0.04061,-5.350246 -4.416488,-5.752571 -4.416488,-5.752571"
       id="path2465" /><path
       style="fill:none;stroke:#ffffff;stroke-width:1;stroke-dasharray:none;stroke-opacity:1"
       d="m 148.74955,115.64001 h -11.38663 v -0.042 -29.732519 h 0.91184 10.868"
       id="path2337-1" /><path
       style="fill:none;stroke:#ffffff;stroke-width:1;stroke-dasharray:none;stroke-opacity:1"
       d="m 148.90476,93.427113 -4.36825,0.16737 0.15803,14.411267 h 4.21098"
       id="path2339-2"
       sodipodi:nodetypes="cccc" /><path
       style="fill:none;stroke:#ffffff;stroke-width:1;stroke-dasharray:none;stroke-opacity:1"
       d="M 140.53439,104.7791 V 97.334163"
       id="path2341-7" /><path
       style="fill:none;stroke:#ffffff;stroke-width:1;stroke-dasharray:none;stroke-opacity:1"
       d="m 149.19193,124.42694 c 0,0 -1.31982,-0.85322 -3.38474,1.62236 -2.06491,2.47558 -1.07981,3.47789 -1.07981,3.47789"
       id="path2343-0" /><path
       style="fill:none;stroke:#ffffff;stroke-width:1;stroke-dasharray:none;stroke-opacity:1"
       d="m 144.03884,72.671501 c 0,0 -0.85323,1.31981 1.62235,3.38473 2.47558,2.06492 3.47789,1.07981 3.47789,1.07981"
       id="path2343-3-9" /><path
       style="fill:none;stroke:#ffffff;stroke-width:1;stroke-dasharray:none;stroke-opacity:1"
       d="M 128.27098,129.48703 V 72.593241"
       id="path2463-3" /><path
       style="fill:none;stroke:#ffffff;stroke-width:1;stroke-dasharray:none;stroke-opacity:1"
       d="m 128.29399,94.759983 c 0,0 -4.19559,0.55698 -4.2362,5.907227 -0.0406,5.35025 4.41648,5.75257 4.41648,5.75257"
       id="path2465-6" /><path
       style="fill:none;stroke:#ffffff;stroke-width:1;stroke-dasharray:none;stroke-opacity:1"
       d="M 104.53307,72.165431 V 129.3453"
       id="path2724" /><path
       style="fill:none;stroke:#ffffff;stroke-width:1;stroke-dasharray:none;stroke-opacity:1"
       d="m 95.603482,129.03769 c 0,0 1.341808,-7.68367 8.842178,-7.72982 7.50037,-0.0461 8.92312,8.13217 8.92312,8.13217"
       id="path2726" /><path
       style="fill:none;stroke:#ffffff;stroke-width:1;stroke-dasharray:none;stroke-opacity:1"
       d="m 95.599,72.54437 c 0,0 -0.01151,8.041439 9.13521,8.153413 9.14671,0.111975 8.51245,-8.111931 8.51245,-8.111931"
       id="path2728" /><ellipse
       style="fill:none;stroke:#ffffff;stroke-width:1;stroke-dasharray:none;stroke-opacity:1"
       id="path2782"
       cx="104.77847"
       cy="-100.64164"
       rx="6.8939514"
       ry="6.6518583"
       transform="scale(1,-1)" /><circle
       style="fill:none;stroke:#ffffff;stroke-width:3;stroke-dasharray:none;stroke-opacity:1"
       id="path2784"
       cx="132.82727"
       cy="71.772461"
       r="6.9592805" /><path
       style="fill:none;stroke:#ffffff;stroke-width:3;stroke-dasharray:none;stroke-opacity:1"
       d="m 126.07329,72.362744 h -6.08758"
       id="path2786" /><text
       xml:space="preserve"
       style="font-size:9.87778px;white-space:pre;inline-size:86.1724;display:inline;fill:#ffffff;fill-opacity:1;stroke:none;stroke-width:3;stroke-dasharray:none;stroke-opacity:1"
       x="68.590538"
       y="142.35918"
       id="text2842"
       transform="matrix(1.4046035,0,0,1.4046035,-46.162568,-49.831234)"><tspan
         x="68.590538"
         y="142.35918"
         id="tspan4126"><tspan
           style="font-weight:bold;font-family:'DejaVu Sans';-inkscape-font-specification:'DejaVu Sans Bold'"
           id="tspan4122">AI SCOUT</tspan><tspan
           style="font-family:'DejaVu Sans';-inkscape-font-specification:'DejaVu Sans'"
           id="tspan4124">-tool</tspan></tspan></text></g></svg>
