<?xml version="1.0" encoding="UTF-8" standalone="no"?>
<!-- Created with Inkscape (http://www.inkscape.org/) -->

<svg
   width="118.70118mm"
   height="147.12152mm"
   viewBox="0 0 118.70118 147.12152"
   version="1.1"
   id="svg1"
   xml:space="preserve"
   xmlns="http://www.w3.org/2000/svg"
   xmlns:svg="http://www.w3.org/2000/svg"><defs
     id="defs1" /><g
     id="layer1"
     transform="translate(-44.618257,-79.805196)"><rect
       style="fill:#01362d;fill-opacity:1;stroke-width:0.400736"
       id="rect6"
       width="118.70119"
       height="147.12152"
       x="44.618256"
       y="79.805199" /><path
       style="fill:#187f1b;fill-opacity:1;stroke-width:0.264583"
       d="M 130.67121,147.7656 H 78.439766 v -9.82468 c 0,0 -0.307724,8.719 -0.307724,0 0,-8.71899 2.478564,-11.10184 4.027556,-12.46195 1.548993,-1.36011 3.603027,-2.66196 5.210485,-3.11833 1.60746,-0.45638 2.830242,-0.68777 2.830242,-0.68777 H 78.522199 c 0,0 0.207651,-4.86777 3.210105,-8.26209 3.002455,-3.39433 5.366578,-4.84747 11.294885,-4.89436 5.928307,-0.0469 26.003511,0 26.003511,0 0,0 11.7442,1.64867 11.7442,13.84759 0,12.19893 -13.02248,12.64035 -13.02248,12.64035 h 12.87967 z"
       id="path1" /><path
       style="fill:#187f1b;fill-opacity:1;stroke-width:0.264583"
       d="m 91.669565,150.20046 c 0,0 -6.180686,0.10992 -9.450158,3.95043 -3.269472,3.84051 -3.984839,5.86702 -3.984839,9.22365 0,3.35664 0,13.70868 0,13.70868 0,0 0.525023,6.65409 3.383127,8.62693 2.858103,1.97284 4.044561,3.60135 8.417726,3.78072 4.373163,0.17938 28.228509,0.19067 28.228509,0.19067 0,0 8.69456,-1.06371 11.82738,-8.66413 3.13282,-7.60042 -3.41549,-14.37785 -3.41549,-14.37785 0,0 -2.59146,-1.64424 -4.37531,-2.25222 -1.78384,-0.60799 -3.07403,-1.02009 -3.07403,-1.02009 l 11.58784,-0.32717 c 0,0 -0.15541,-4.75865 -3.50608,-8.80658 -3.35066,-4.04794 -8.52092,-4.2901 -12.36345,-4.2901 -3.84252,0 -23.275225,0.25706 -23.275225,0.25706 z"
       id="path2" /><text
       xml:space="preserve"
       style="font-size:8.98086px;font-family:'Noto Sans Runic';-inkscape-font-specification:'Noto Sans Runic, Normal';fill:#03e778;fill-opacity:1;stroke-width:0.0219545"
       x="78.398178"
       y="199.54984"
       id="text2"><tspan
         id="tspan2"
         style="fill:#03e778;fill-opacity:1;stroke-width:0.0219545"
         x="78.398178"
         y="199.54984">OSINVICTOS</tspan></text></g></svg>
