<?xml version="1.0" encoding="UTF-8" standalone="no"?>
<svg
   viewBox="0 0 1679.7 2000"
   style="enable-background:new 0 0 1679.7 2000"
   xml:space="preserve"
   version="1.1"
   id="svg3"
   sodipodi:docname="escudo-flamengo.svg"
   inkscape:export-filename="escudo-flamengo.svg"
   inkscape:export-xdpi="96"
   inkscape:export-ydpi="96"
   inkscape:version="1.3.2 (1:1.3.2+202410171156+9f538bd40a)"
   xmlns:inkscape="http://www.inkscape.org/namespaces/inkscape"
   xmlns:sodipodi="http://sodipodi.sourceforge.net/DTD/sodipodi-0.dtd"
   xmlns="http://www.w3.org/2000/svg"
   xmlns:svg="http://www.w3.org/2000/svg"><defs
     id="defs3" /><sodipodi:namedview
     id="namedview3"
     pagecolor="#505050"
     bordercolor="#eeeeee"
     borderopacity="1"
     inkscape:showpageshadow="0"
     inkscape:pageopacity="0"
     inkscape:pagecheckerboard="0"
     inkscape:deskcolor="#d1d1d1"
     inkscape:zoom="0.236"
     inkscape:cx="838.98305"
     inkscape:cy="1000"
     inkscape:window-width="1366"
     inkscape:window-height="711"
     inkscape:window-x="0"
     inkscape:window-y="0"
     inkscape:window-maximized="1"
     inkscape:current-layer="svg3" /><path
     d="M 845.64541,1931.2633 C 620.41586,1843.3371 439.79909,1721.6266 313.67055,1552.9643 182.69089,1377.4585 118.06734,1151.7092 118.06734,837.25407 V 198.7283 H 1573.1368 v 638.52577 c 0,314.54173 -64.6236,540.29103 -195.6032,715.79683 -126.1286,168.5757 -306.7453,290.2862 -531.88819,378.2124 z"
     style="clip-rule:evenodd;fill-rule:evenodd;stroke-width:0.866268"
     id="path1" /><path
     d="M 845.64541,1881.2796 C 744.552,1840.7383 652.38113,1793.3536 570.51886,1736.2665 h 550.33964 c -81.9488,57.1736 -174.11967,104.5584 -275.21309,145.0131 z m -489.44114,-350.665 c -43.4,-58.2998 -79.86986,-123.5297 -109.1497,-196.4695 H 1444.2362 c -29.2798,72.9398 -65.7497,138.1697 -109.1497,196.4695 z M 184.16354,1105.1906 C 174.11484,1045.4182 167.79109,981.6609 165.19229,913.57223 H 1525.752 c -2.2523,68.08867 -8.6627,131.84597 -18.7114,191.61837 z M 869.72765,466.40495 H 1527.2246 V 691.89439 H 869.72765 Z M 163.97951,244.98698 h 659.48945 v 622.4132 H 163.97951 Z"
     style="clip-rule:evenodd;fill:#cd3529;fill-rule:evenodd;stroke-width:0.866268"
     id="path2" /><path
     d="m 603.43702,839.50636 c -16.11257,-5.1976 -35.60359,-48.85749 -34.73733,-69.82116 v -2.85868 c -20.96367,-35.6036 -42.18722,-64.01717 -56.82714,-81.86228 l 0.25988,92.17087 c -1.12616,31.01237 -8.92256,50.8499 -31.27227,61.50498 18.36488,2.59881 46.51857,6.32375 63.15091,-18.36486 4.59122,10.65509 36.20998,27.28742 59.42595,19.23113 z m 56.6539,-205.30539 c 5.71736,12.90739 9.4423,35.34371 -25.81477,63.75728 43.05348,-5.45748 62.63113,-21.57006 64.62355,-42.53373 3.46506,-38.80879 -9.44232,-39.06867 -0.60639,-91.6511 2.85868,-17.84511 14.03353,-30.14611 33.3513,-45.6523 -40.19482,6.06388 -64.88344,25.81478 -77.53094,70.34093 l -85.32735,-0.25988 V 436.51872 h 26.59441 c -2.5988,-16.63233 -7.4499,-33.00479 -17.4986,-51.36966 h -41.06108 c -20.7038,0 -29.62635,-8.05629 -49.72376,-0.86627 14.63992,8.66267 25.03514,19.83753 25.03514,32.48503 v 174.63953 c 19.23113,9.78883 39.06866,25.5549 54.57485,42.79362 z m 36.46985,-197.68225 h 43.65989 c 0,24.42875 28.15369,72.67985 69.82116,74.06588 -20.96367,-30.14611 -29.27985,-51.4563 -20.09741,-92.77725 20.96367,-53.96847 4.59122,-97.10859 -19.83752,-103.08584 4.59121,14.8998 7.70977,59.16607 -17.49861,70.68744 h -80.99601 c 7.70978,25.90139 19.14452,46.86506 24.9485,51.10977 z M 499.22504,747.3355 C 326.57793,809.10037 249.91326,725.24568 202.52842,600.24328 195.94479,584.47721 195.3384,573.56224 176.71365,561.781 c 20.96367,-6.93013 24.68862,-19.83752 27.89381,-33.00479 11.78124,-84.46107 64.01717,-155.66827 146.22595,-181.82954 v 41.66746 c -58.03991,29.01996 -89.31218,106.29102 -87.31975,178.36447 2.59879,81.60241 78.65709,166.32337 155.92814,164.33096 25.29501,-0.60639 53.96847,-3.46508 79.86986,-22.69622 z m -65.7497,-413.90261 c 12.6475,-0.60638 26.16127,-1.12615 40.45469,-1.47265 -3.11857,18.36486 -9.78882,89.65868 18.97126,113.74092 -5.45749,11.78124 -20.35729,24.68863 -34.73733,24.42875 -9.78882,-0.25989 -12.64751,-4.59122 -17.84511,-11.78125 -2.25229,-3.46506 -4.59122,-6.93013 -6.93014,-10.65509 z m -13.2539,295.57047 v 88.7058 c -5.71736,0.86626 -12.64751,0.86626 -21.22355,-0.86627 -9.18244,-1.73254 -22.43633,-5.19761 -35.34371,-13.51377 v -370.7625 c 0,-22.95609 -17.23873,-43.4 -46.25869,-55.18123 28.1537,-18.105 82.12216,-1.12615 91.04472,19.23114 28.15369,-18.36488 61.76487,-27.02755 95.02954,-26.68105 63.49741,0.60639 125.78204,34.47745 149.6044,99.101 12.30099,34.21757 18.71138,68.9549 43.91976,81.86229 -6.58364,3.46507 -12.38763,8.40279 -16.97884,14.38004 -12.9074,16.97883 -21.22356,42.53373 -42.53374,73.80599 -8.31616,12.6475 -18.62475,24.68862 -31.01238,36.46986 h -25.29501 v -30.14611 c 17.84512,-28.41358 27.54731,-64.36368 27.02755,-99.101 -0.60639,-50.8499 -39.93494,-128.38085 -130.11338,-133.57845 -25.81477,-1.47266 -47.99122,6.32375 -58.03992,12.6475 v 257.1082 c 52.84232,0 91.04472,18.71138 119.45828,43.65987 27.28743,23.82236 46.25869,54.57486 63.15091,86.45351 24.08224,45.39241 40.80119,85.32734 70.08104,84.46108 22.08982,-1.12615 32.48503,-11.78124 42.18723,-25.55489 9.78882,45.39241 -25.29502,64.36367 -46.77845,64.88343 -22.95609,0.25988 -50.59002,-19.23114 -68.08863,-44.52615 -26.68104,-37.94252 -52.23593,-91.6511 -89.31218,-126.99481 -40.80119,-39.58843 -69.82116,-35.86348 -90.52495,-35.86348 z m 5.19761,150.81717 c 6.06388,24.42874 18.10499,53.70858 38.80878,66.96248 -54.31497,-0.60639 -58.2998,-19.49102 -66.0962,-27.89382 -12.9074,12.90739 -32.74492,34.47745 -74.06588,30.14611 23.3026,-21.57005 33.3513,-43.05349 37.33613,-70.08104 20.01078,3.11857 45.04591,3.98484 64.01717,0.86627 z"
     style="clip-rule:evenodd;fill:#ffffff;fill-rule:evenodd;stroke-width:0.866268"
     id="path3" /></svg>
